# xmcd
#
# Track frame offsets:
#	150
#	9737
#	27327
#	46380
#	64925
#	80342
#	97550
#	124737
#	146982
#	165259
#	178295
#	196890
#	203270
#	216885
#	228325
#	241077
#	251855
#	266420
#	270317
#	307040
#
# Disc length: 4303 seconds
#
# Revision: 10
# Processed by: cddbd v1.5.2PL0 Copyright (c) Steve Scherf et al.
# Submitted via: audiograbber 1.83.01
#
DISCID=0e10cd14
DTITLE=Various Artist - Kinky Friedman, From One Good American To Another
DYEAR=1995
DGENRE=Country
TTITLE0=Kinky Friedman and Panama Red - Rock And Roll Across The USA
TTITLE1=Kinky Friedman - Shield Of Abraham
TTITLE2=Kinky Friedman and Panama Red - The Boogie Man
TTITLE3=Tom Paxton - Ramblin' Boy
TTITLE4=Red Foley and Willis Arthur - Old Shep
TTITLE5=Woody Guthrie - Pretty Boy Floyd
TTITLE6=Peter LaFarge - The Ballad Of Ira Hayes
TTITLE7=Goeble Reeves - Hobo's Lullaby
TTITLE8=Red River Dave McEnery - Amelia Earhart's Last Flight
TTITLE9=Kinky Friedman - Rapid City, South Dakota
TTITLE10=Kinky Friedman - They Ain't Makin' Jews Like Jesus Anymore
TTITLE11=Traditional - Cherokee Shuttle
TTITLE12=Jay Wise - Miss Nickelodeon
TTITLE13=Kinky Friedman and Panama Red - Somethin's Wrong With The Beaver
TTITLE14=Billy Swan - Lover Please
TTITLE15=Kinky Friedman, Panama Red and Roger Friedman - Mama, Baby, Mama Let Me 
TTITLE15=Jump In Your Pajamas
TTITLE16=Kinky Friedman - Carrying The Torch
TTITLE17=Traditional - Father Let Thy Blessings
TTITLE18=Kinky Friedman - Ride Em' Jewboy
TTITLE19=Kinky Friedman - God Bless John Wayne (People Who Read People Magazine
TTITLE19=)
EXTD=1995 Fruit of the Tune Music\nFruit of the Tune 1111\nProd by Nick 'Chinga
EXTD=' Chavin
EXTT0=
EXTT1=
EXTT2=
EXTT3=Yes indeed, the Tom Paxton song
EXTT4=
EXTT5=
EXTT6=
EXTT7=
EXTT8=
EXTT9=
EXTT10=
EXTT11=
EXTT12=
EXTT13=
EXTT14=Billy Swan's song
EXTT15=
EXTT16=
EXTT17=
EXTT18=
EXTT19=
PLAYORDER=
